<svg width="333" height="368" viewBox="0 0 333 368" fill="none" xmlns="http://www.w3.org/2000/svg">
<path d="M162.5 322.483V367.071L0.5 276.903V96.0713L162.5 181.571V224.071L34.7598 153.541V252.627L162.5 322.483Z" fill="black" stroke="black"/>
<path d="M202.605 347.571L169.503 367.071L169.503 181.571L332 96.5713L331.5 276.571L298.398 294.571V150.467L266.802 167.619V312.071L233 331.071C233 283.373 232.697 187.417 232.697 186.241C232.697 185.065 212.635 196.859 202.605 202.903V347.571Z" fill="black" stroke="black"/>
<path d="M166.242 0.133789L328.742 90.1338L329.555 90.584L328.731 91.0146L166.231 176.015L165.999 176.136L165.767 176.014L3.7666 90.5137L2.94824 90.0811L3.75781 89.6338L165.758 0.133789L166 0L166.242 0.133789ZM164.816 40.2002L76.3164 89.2002L75.5039 89.6504L76.3271 90.0811L129.827 118.081L130.068 118.207L130.305 118.072L201.555 77.7129L219.555 88.1338L150.311 127.703L149.521 128.154L150.324 128.58L167.324 137.58L167.566 137.707L167.804 137.573L254.804 88.5732L255.589 88.1318L254.799 87.6992L201.799 58.6992L201.556 58.5664L201.314 58.7012L130.057 98.5654L111.091 88.1338L145.302 69.0742L180.302 49.5742L181.079 49.1416L180.305 48.7031L165.305 40.2031L165.062 40.0645L164.816 40.2002Z" fill="black"/>
</svg>
